<svg width="33" height="46" viewBox="0 0 33 46" fill="none" xmlns="http://www.w3.org/2000/svg">
<path d="M16.8115 0C8.07573 0 0.976562 7.09934 0.976562 15.835C0.976562 18.7908 1.79488 21.6676 3.3519 24.1484L15.7381 44.4184C15.9494 44.7615 16.2661 44.9727 16.6357 45.0255C17.1369 45.1046 17.6914 44.8935 17.9816 44.3921L30.4033 23.9372C31.8811 21.5093 32.6465 18.6853 32.6465 15.835C32.6465 7.09934 25.5473 0 16.8115 0ZM16.8115 23.7525C12.3779 23.7525 8.89405 20.1632 8.89405 15.835C8.89405 11.4803 12.4568 7.91748 16.8115 7.91748C21.1662 7.91748 24.729 11.4803 24.729 15.835C24.729 20.1368 21.298 23.7525 16.8115 23.7525Z" fill="black"/>
</svg>
