<svg width="45" height="45" viewBox="0 0 45 45" fill="none" xmlns="http://www.w3.org/2000/svg">
<path d="M26.6133 22.5C26.6133 24.8785 24.6852 26.8066 22.3066 26.8066C19.9281 26.8066 18 24.8785 18 22.5C18 20.1215 19.9281 18.1934 22.3066 18.1934C24.6852 18.1934 26.6133 20.1215 26.6133 22.5Z" fill="black"/>
<path d="M32.6639 14.8803C32.4569 14.3194 32.1266 13.8116 31.6975 13.3948C31.2807 12.9656 30.7732 12.6354 30.2119 12.4283C29.7566 12.2515 29.0728 12.0411 27.8131 11.9837C26.4505 11.9216 26.0419 11.9082 22.5922 11.9082C19.1421 11.9082 18.7336 11.9212 17.3713 11.9834C16.1116 12.0411 15.4274 12.2515 14.9725 12.4283C14.4112 12.6354 13.9034 12.9656 13.4869 13.3948C13.0578 13.8116 12.7275 14.319 12.5201 14.8803C12.3433 15.3356 12.1329 16.0198 12.0755 17.2795C12.0134 18.6418 12 19.0504 12 22.5004C12 25.9501 12.0134 26.3587 12.0755 27.7213C12.1329 28.981 12.3433 29.6649 12.5201 30.1201C12.7275 30.6814 13.0574 31.1889 13.4866 31.6057C13.9034 32.0348 14.4108 32.3651 14.9721 32.5721C15.4274 32.7493 16.1116 32.9597 17.3713 33.0171C18.7336 33.0792 19.1418 33.0923 22.5918 33.0923C26.0422 33.0923 26.4508 33.0792 27.8128 33.0171C29.0724 32.9597 29.7566 32.7493 30.2119 32.5721C31.3387 32.1375 32.2293 31.2469 32.6639 30.1201C32.8407 29.6649 33.0512 28.981 33.1089 27.7213C33.171 26.3587 33.184 25.9501 33.184 22.5004C33.184 19.0504 33.171 18.6418 33.1089 17.2795C33.0515 16.0198 32.8411 15.3356 32.6639 14.8803ZM22.5922 29.1344C18.9279 29.1344 15.9575 26.1643 15.9575 22.5001C15.9575 18.8358 18.9279 15.8657 22.5922 15.8657C26.2561 15.8657 29.2266 18.8358 29.2266 22.5001C29.2266 26.1643 26.2561 29.1344 22.5922 29.1344ZM29.4889 17.1538C28.6326 17.1538 27.9384 16.4596 27.9384 15.6034C27.9384 14.7471 28.6326 14.0529 29.4889 14.0529C30.3451 14.0529 31.0393 14.7471 31.0393 15.6034C31.039 16.4596 30.3451 17.1538 29.4889 17.1538Z" fill="black"/>
<path d="M0.5 22.5C0.5 10.3516 10.3516 0.5 22.5 0.5C34.6484 0.5 44.5 10.3516 44.5 22.5C44.5 34.6484 34.6484 44.5 22.5 44.5C10.3516 44.5 0.5 34.6484 0.5 22.5Z" stroke="black"/>
</svg>
