<svg width="23" height="23" viewBox="0 0 23 23" fill="none" xmlns="http://www.w3.org/2000/svg">
<path d="M13.7012 11.5C13.7012 12.7157 12.7157 13.7012 11.5 13.7012C10.2843 13.7012 9.29883 12.7157 9.29883 11.5C9.29883 10.2843 10.2843 9.29883 11.5 9.29883C12.7157 9.29883 13.7012 10.2843 13.7012 11.5Z" fill="white"/>
<path d="M16.6477 7.60546C16.5419 7.31873 16.3731 7.0592 16.1538 6.84618C15.9407 6.62683 15.6814 6.45802 15.3945 6.35221C15.1618 6.26184 14.8123 6.15427 14.1684 6.12497C13.472 6.09321 13.2632 6.08636 11.5 6.08636C9.73661 6.08636 9.52779 6.09303 8.8315 6.12479C8.18768 6.15427 7.83796 6.26184 7.60545 6.35221C7.31855 6.45802 7.05902 6.62683 6.84617 6.84618C6.62682 7.0592 6.45802 7.31856 6.35203 7.60546C6.26166 7.83814 6.15409 8.18787 6.12479 8.83169C6.09303 9.52798 6.08618 9.7368 6.08618 11.5002C6.08618 13.2633 6.09303 13.4722 6.12479 14.1686C6.15409 14.8124 6.26166 15.162 6.35203 15.3947C6.45802 15.6816 6.62665 15.9409 6.84599 16.154C7.05902 16.3733 7.31837 16.5421 7.60528 16.6479C7.83796 16.7385 8.18768 16.846 8.8315 16.8753C9.52779 16.9071 9.73643 16.9138 11.4998 16.9138C13.2633 16.9138 13.4721 16.9071 14.1683 16.8753C14.8121 16.846 15.1618 16.7385 15.3945 16.6479C15.9704 16.4258 16.4256 15.9706 16.6477 15.3947C16.7381 15.162 16.8457 14.8124 16.8751 14.1686C16.9069 13.4722 16.9136 13.2633 16.9136 11.5002C16.9136 9.7368 16.9069 9.52798 16.8751 8.83169C16.8458 8.18787 16.7383 7.83814 16.6477 7.60546ZM11.5 14.8909C9.62711 14.8909 8.10889 13.3728 8.10889 11.5C8.10889 9.62712 9.62711 8.10908 11.5 8.10908C13.3726 8.10908 14.8909 9.62712 14.8909 11.5C14.8909 13.3728 13.3726 14.8909 11.5 14.8909ZM15.0249 8.76747C14.5873 8.76747 14.2325 8.41265 14.2325 7.97501C14.2325 7.53738 14.5873 7.18256 15.0249 7.18256C15.4626 7.18256 15.8174 7.53738 15.8174 7.97501C15.8172 8.41265 15.4626 8.76747 15.0249 8.76747Z" fill="white"/>
<path d="M0.5 11.5C0.5 5.42584 5.42584 0.5 11.5 0.5C17.5742 0.5 22.5 5.42584 22.5 11.5C22.5 17.5742 17.5742 22.5 11.5 22.5C5.42584 22.5 0.5 17.5742 0.5 11.5Z" stroke="white"/>
</svg>
