<svg width="29" height="45" viewBox="0 0 29 45" fill="none" xmlns="http://www.w3.org/2000/svg">
<path d="M27.4236 1.25981V1.25517C26.6248 0.452208 25.5391 0.000464876 24.4065 0H4.58885C2.23507 0.00767045 0.32896 1.91378 0.321289 4.26756V40.7278C0.321754 41.8603 0.773498 42.9461 1.57645 43.7448C2.37407 44.5466 3.45792 44.9983 4.58885 45H24.4112C25.5421 44.9983 26.6259 44.5466 27.4236 43.7448C28.2254 42.9472 28.677 41.8634 28.6787 40.7324V4.27221C28.677 3.14128 28.2254 2.05743 27.4236 1.25981ZM14.5 42.1038C13.8632 42.1038 13.3471 41.5877 13.3471 40.9509C13.3471 40.3142 13.8632 39.798 14.5 39.798C15.1368 39.798 15.6529 40.3142 15.6529 40.9509C15.6529 41.5877 15.1368 42.1038 14.5 42.1038ZM25.2898 34.8657C25.2898 36.4062 24.041 37.655 22.5005 37.655H6.49484C4.95436 37.655 3.70559 36.4062 3.70559 34.8657V7.6937C3.70559 6.15321 4.95436 4.90444 6.49484 4.90444H22.5052C24.0457 4.90444 25.2944 6.15321 25.2944 7.6937L25.2898 34.8657Z" fill="black"/>
</svg>
