<svg width="23" height="23" viewBox="0 0 23 23" fill="none" xmlns="http://www.w3.org/2000/svg">
<path d="M22.5 11.5C22.5 17.5751 17.5751 22.5 11.5 22.5C5.42487 22.5 0.5 17.5751 0.5 11.5C0.5 5.42487 5.42487 0.5 11.5 0.5C17.5751 0.5 22.5 5.42487 22.5 11.5Z" stroke="white"/>
<path d="M5.26215 11.2509L16.3501 6.97572C16.8647 6.78981 17.3142 7.10127 17.1474 7.87943L17.1484 7.87847L15.2604 16.7728C15.1205 17.4034 14.7458 17.5567 14.2216 17.2596L11.3466 15.1407L9.95991 16.4766C9.80657 16.63 9.6772 16.7594 9.38011 16.7594L9.58424 13.8336L14.9126 9.01985C15.1445 8.81573 14.8608 8.70073 14.5551 8.90389L7.97041 13.0496L5.13182 12.1641C4.51561 11.9686 4.5022 11.5479 5.26215 11.2509Z" fill="white"/>
</svg>
