<svg width="45" height="45" viewBox="0 0 45 45" fill="none" xmlns="http://www.w3.org/2000/svg">
<path d="M44.5 22.5C44.5 34.6503 34.6503 44.5 22.5 44.5C10.3497 44.5 0.5 34.6503 0.5 22.5C0.5 10.3497 10.3497 0.5 22.5 0.5C34.6503 0.5 44.5 10.3497 44.5 22.5Z" stroke="black"/>
<path d="M10.2953 22.0127L31.989 13.6483C32.9959 13.2845 33.8753 13.8939 33.549 15.4164L33.5509 15.4145L29.8571 32.8164C29.5834 34.0502 28.8503 34.3502 27.8246 33.7689L22.1996 29.6233L19.4865 32.237C19.1865 32.537 18.9334 32.7902 18.3521 32.7902L18.7515 27.0658L29.1765 17.6476C29.6303 17.2483 29.0753 17.0233 28.4771 17.4208L15.594 25.532L10.0403 23.7995C8.83464 23.417 8.80839 22.5939 10.2953 22.0127Z" fill="black"/>
</svg>
