<svg width="136" height="22" viewBox="0 0 136 22" fill="none" xmlns="http://www.w3.org/2000/svg">
<path d="M13.784 0.663999C13.992 0.775999 14.144 0.888 14.24 1C14.352 1.112 14.44 1.248 14.504 1.408V1.864C14.424 1.912 14.28 2.008 14.072 2.152C13.88 2.296 13.72 2.384 13.592 2.416C13.448 2.432 13.264 2.504 13.04 2.632C12.832 2.744 12.648 2.8 12.488 2.8C12.392 2.8 12.28 2.776 12.152 2.728C12.088 2.68 12.008 2.656 11.912 2.656C11.832 2.64 11.768 2.632 11.72 2.632C11.608 2.392 11.488 2.232 11.36 2.152C11.2 2.216 10.952 2.248 10.616 2.248C10.28 2.248 10.032 2.288 9.872 2.368C9.376 2.4 8.912 2.48 8.48 2.608C8.224 2.672 8.032 2.712 7.904 2.728C7.552 2.792 7.264 2.872 7.04 2.968C6.896 3.256 6.68 3.696 6.392 4.288C5.976 5.152 5.632 5.976 5.36 6.76L4.088 10.192C3.992 10.368 3.808 10.864 3.536 11.68C3.28 12.496 3.136 13.016 3.104 13.24C3.056 13.528 2.984 13.84 2.888 14.176C2.792 14.512 2.728 14.752 2.696 14.896C2.664 14.992 2.608 15.176 2.528 15.448C2.464 15.72 2.424 15.992 2.408 16.264C2.408 16.312 2.384 16.368 2.336 16.432C2.304 16.496 2.28 16.552 2.264 16.6C2.152 16.552 1.888 16.528 1.472 16.528C1.296 16.448 1.128 16.296 0.968 16.072C1.064 15.432 1.152 14.976 1.232 14.704C1.376 14.24 1.496 13.744 1.592 13.216C1.64 12.976 1.704 12.68 1.784 12.328L2.336 11.2C2.432 10.752 2.568 10.288 2.744 9.808C2.92 9.328 3.024 9.032 3.056 8.92C3.296 8.216 3.536 7.592 3.776 7.048C3.808 6.952 3.944 6.592 4.184 5.968C4.248 5.792 4.352 5.52 4.496 5.152C4.656 4.768 4.784 4.472 4.88 4.264C4.976 4.056 5.032 3.904 5.048 3.808C4.84 3.824 4.624 3.792 4.4 3.712C4.176 3.632 4.04 3.536 3.992 3.424L3.848 2.56C3.992 2.448 4.32 2.352 4.832 2.272L5.336 2.08C5.512 2.016 5.792 1.936 6.176 1.84C8.4 1.328 9.632 1.072 9.872 1.072C9.952 1.072 10.088 1.072 10.28 1.072C10.472 1.056 10.648 1.016 10.808 0.951999C10.824 0.935999 11.008 0.927999 11.36 0.927999C11.728 0.927999 11.992 0.895999 12.152 0.831999C12.248 0.8 12.408 0.784 12.632 0.784C12.872 0.767999 13.048 0.735999 13.16 0.688C13.192 0.655999 13.264 0.639999 13.376 0.639999L13.784 0.663999ZM8.32288 15.64C8.13088 15.64 7.97888 15.608 7.86688 15.544C7.75488 15.48 7.59488 15.36 7.38688 15.184C6.85888 14.624 6.59488 14.112 6.59488 13.648C6.59488 13.536 6.60288 13.456 6.61888 13.408C6.66688 13.296 6.68288 13.184 6.66688 13.072C6.66688 12.96 6.66688 12.888 6.66688 12.856C6.60288 12.792 6.57088 12.752 6.57088 12.736C6.57088 12.704 6.58688 12.68 6.61888 12.664C6.65088 12.632 6.67488 12.6 6.69088 12.568C6.78688 12.568 6.81888 12.48 6.78688 12.304C6.75488 12.176 6.81888 11.896 6.97888 11.464C7.13888 11.016 7.33888 10.608 7.57888 10.24C7.75488 9.952 8.01088 9.592 8.34688 9.16C8.69888 8.728 9.01088 8.4 9.28288 8.176C9.66688 7.84 10.0109 7.592 10.3149 7.432C10.6189 7.272 10.9549 7.152 11.3229 7.072C11.6429 6.992 11.8589 6.952 11.9709 6.952C12.0829 6.952 12.1789 6.984 12.2589 7.048C12.3549 7.096 12.4749 7.192 12.6189 7.336C13.0509 7.528 13.3469 7.776 13.5069 8.08C13.6829 8.368 13.7709 8.824 13.7709 9.448C13.7709 10.488 13.3469 11.616 12.4989 12.832C12.1309 13.36 11.7869 13.768 11.4669 14.056C11.1469 14.328 10.7229 14.624 10.1949 14.944C9.85888 15.184 9.54688 15.36 9.25888 15.472C8.98688 15.568 8.67488 15.624 8.32288 15.64ZM10.6269 13.096C11.0109 12.664 11.3149 12.256 11.5389 11.872C11.7789 11.488 12.0029 11 12.2109 10.408C12.2909 10.136 12.3309 9.808 12.3309 9.424C12.3309 8.944 12.2669 8.672 12.1389 8.608C11.9789 8.528 11.8189 8.488 11.6589 8.488C11.3069 8.488 10.9389 8.648 10.5549 8.968C10.0909 9.368 9.67488 9.864 9.30688 10.456C8.93888 11.032 8.56288 11.752 8.17888 12.616C8.01888 12.952 7.93888 13.28 7.93888 13.6C7.93888 13.84 7.99488 14.032 8.10688 14.176C8.23488 14.32 8.40288 14.392 8.61088 14.392C9.13888 14.392 9.81088 13.96 10.6269 13.096ZM18.4638 15.736C18.2398 15.768 18.0718 15.784 17.9598 15.784C17.3678 15.784 16.8798 15.6 16.4958 15.232C16.1118 14.864 15.9198 14.352 15.9198 13.696C15.8558 12.992 16.0078 12.12 16.3758 11.08C16.7598 10.04 17.2398 9.168 17.8158 8.464C18.2158 8 18.5598 7.624 18.8478 7.336C19.1358 7.048 19.3998 6.856 19.6398 6.76C19.9758 6.616 20.3518 6.544 20.7678 6.544C21.0558 6.608 21.3358 6.728 21.6078 6.904C21.8958 7.08 22.0398 7.256 22.0398 7.432L22.1598 7.552C22.2558 7.552 22.3438 7.672 22.4238 7.912C22.5038 8.136 22.5438 8.384 22.5438 8.656C22.5438 8.88 22.5038 9.072 22.4238 9.232C22.3598 9.536 22.2478 9.8 22.0878 10.024C21.9438 10.248 21.7998 10.36 21.6558 10.36C21.4798 10.36 21.3918 10.408 21.3918 10.504C21.3918 10.568 21.3598 10.6 21.2958 10.6C21.2158 10.6 21.1198 10.552 21.0078 10.456C20.8958 10.36 20.8158 10.248 20.7678 10.12C20.7678 10.072 20.7998 9.936 20.8638 9.712C20.9278 9.488 20.9918 9.24 21.0558 8.968C21.1038 8.776 21.1278 8.608 21.1278 8.464C21.1278 8.144 21.0078 7.984 20.7678 7.984C20.6398 7.984 20.5118 8.016 20.3838 8.08C19.7438 8.432 19.1758 8.992 18.6798 9.76C18.1838 10.528 17.7678 11.584 17.4318 12.928C17.3518 13.28 17.3118 13.56 17.3118 13.768C17.3118 13.928 17.3198 14.056 17.3358 14.152C17.3678 14.248 17.3998 14.304 17.4318 14.32C17.5118 14.352 17.6798 14.368 17.9358 14.368C18.5278 14.368 18.9438 14.296 19.1838 14.152C19.6958 13.88 20.2638 13.512 20.8878 13.048C20.9518 13 21.0478 12.92 21.1758 12.808C21.3038 12.68 21.4238 12.592 21.5358 12.544C21.6478 12.368 21.7518 12.264 21.8478 12.232C21.9438 12.184 22.0958 12.16 22.3038 12.16C22.5118 12.224 22.6798 12.312 22.8078 12.424C22.9358 12.52 22.9358 12.6 22.8078 12.664C22.7598 12.664 22.7278 12.68 22.7118 12.712C22.6958 12.744 22.6878 12.768 22.6878 12.784C22.7198 12.864 22.5918 13.064 22.3038 13.384C22.0158 13.704 21.6958 14.008 21.3438 14.296C20.9918 14.568 20.7518 14.704 20.6238 14.704C20.5598 14.704 20.5038 14.712 20.4558 14.728C20.4078 14.744 20.3838 14.784 20.3838 14.848C20.3838 14.912 20.1358 15.064 19.6398 15.304C19.1598 15.528 18.7678 15.672 18.4638 15.736ZM25.7711 15.112C25.6431 14.952 25.5791 14.792 25.5791 14.632C25.5791 14.504 25.5391 14.44 25.4591 14.44C25.3631 14.344 25.5471 13.8 26.0111 12.808C26.4751 11.8 26.8751 11.032 27.2111 10.504C27.2751 10.456 27.3231 10.392 27.3551 10.312C27.3871 10.216 27.3871 10.168 27.3551 10.168C27.3871 10.12 27.4351 10.04 27.4991 9.928C27.5631 9.816 27.6271 9.72 27.6911 9.64C27.9631 9.112 28.0751 8.688 28.0271 8.368C27.9631 8.304 27.8911 8.28 27.8111 8.296C27.7471 8.312 27.7071 8.328 27.6911 8.344C27.6591 8.36 27.5711 8.392 27.4271 8.44C27.2991 8.472 27.1871 8.52 27.0911 8.584C26.7231 8.824 26.4911 8.944 26.3951 8.944C26.2991 8.944 26.2111 8.896 26.1311 8.8C26.0671 8.704 25.9951 8.544 25.9151 8.32C25.8671 8.176 25.8431 8.072 25.8431 8.008C25.8431 7.896 25.9071 7.784 26.0351 7.672C26.1311 7.576 26.2431 7.504 26.3711 7.456C26.5151 7.392 26.6111 7.344 26.6591 7.312C26.9951 7.12 27.2351 7.008 27.3791 6.976C27.6671 6.896 27.8991 6.856 28.0751 6.856C28.5551 6.856 28.8911 7.08 29.0831 7.528C29.3071 7.8 29.4191 8.112 29.4191 8.464C29.4191 8.768 29.3071 9.16 29.0831 9.64L28.8431 10C28.7951 10.096 28.7711 10.16 28.7711 10.192C28.7711 10.224 28.7791 10.24 28.7951 10.24C28.8591 10.24 28.9311 10.184 29.0111 10.072C29.0911 9.992 29.1951 9.896 29.3231 9.784C29.4511 9.656 29.5391 9.592 29.5871 9.592C29.6031 9.592 29.6271 9.584 29.6591 9.568C29.6911 9.536 29.7071 9.472 29.7071 9.376L29.9471 9.16C30.0111 9.16 30.2031 9.024 30.5231 8.752L30.9791 8.392C31.1551 8.264 31.3151 8.2 31.4591 8.2C31.5071 8.184 31.5791 8.176 31.6751 8.176C31.9791 8.176 32.2271 8.344 32.4191 8.68C32.6111 9 32.7071 9.416 32.7071 9.928L32.2031 11.224L33.0671 10.168C33.2111 9.992 33.4031 9.8 33.6431 9.592C33.6751 9.496 33.7151 9.44 33.7631 9.424C33.8271 9.392 33.8671 9.376 33.8831 9.376C33.8991 9.376 33.9151 9.368 33.9311 9.352C33.9631 9.336 33.9791 9.312 33.9791 9.28C34.0431 9.232 34.1231 9.176 34.2191 9.112C34.3311 9.032 34.4031 8.968 34.4351 8.92C34.5791 8.856 34.7391 8.824 34.9151 8.824C35.2511 8.824 35.5311 9.04 35.7551 9.472C35.8511 9.648 35.9071 9.808 35.9231 9.952C35.9551 10.08 35.9711 10.304 35.9711 10.624C35.9071 10.976 35.8511 11.344 35.8031 11.728C35.8031 11.792 35.7871 11.952 35.7551 12.208C35.6751 12.384 35.6351 12.656 35.6351 13.024C35.6351 13.248 35.6431 13.392 35.6591 13.456C35.6911 13.52 35.7551 13.552 35.8511 13.552C36.0911 13.504 36.4031 13.392 36.7871 13.216C37.1871 13.024 37.4751 12.84 37.6511 12.664C37.8911 12.424 38.1071 12.304 38.2991 12.304C38.4751 12.304 38.5871 12.4 38.6351 12.592C38.6831 12.688 38.5551 12.944 38.2511 13.36C37.9631 13.776 37.7631 13.984 37.6511 13.984C37.6191 13.984 37.5551 14.032 37.4591 14.128C37.3791 14.224 37.3151 14.288 37.2671 14.32C36.9951 14.624 36.7711 14.776 36.5951 14.776C36.5311 14.776 36.4431 14.8 36.3311 14.848C36.2351 14.88 36.1471 14.896 36.0671 14.896C36.0351 14.912 35.9551 14.92 35.8271 14.92C35.5871 14.92 35.3551 14.856 35.1311 14.728C34.9071 14.6 34.7631 14.408 34.6991 14.152C34.5711 13.832 34.5071 13.384 34.5071 12.808C34.5071 12.664 34.5231 12.432 34.5551 12.112L34.6751 11.368C34.7071 11.064 34.7391 10.88 34.7711 10.816V10.6C34.7711 10.328 34.7471 10.192 34.6991 10.192C34.5711 10.192 34.1471 10.608 33.4271 11.44C32.7071 12.256 32.1551 12.96 31.7711 13.552C31.6591 13.696 31.5311 13.912 31.3871 14.2C31.2591 14.472 31.1791 14.616 31.1471 14.632C31.0831 14.696 31.0111 14.728 30.9311 14.728C30.8351 14.728 30.7311 14.68 30.6191 14.584C30.5071 14.488 30.4111 14.368 30.3311 14.224C30.2671 14.064 30.2351 13.944 30.2351 13.864C30.2351 13.752 30.2831 13.536 30.3791 13.216C30.4751 12.88 30.6111 12.44 30.7871 11.896C30.9631 11.368 31.1071 10.912 31.2191 10.528C31.3471 10.144 31.4271 9.888 31.4591 9.76C31.4591 9.648 31.0591 9.936 30.2591 10.624C30.0991 10.816 29.9151 11.016 29.7071 11.224C29.3391 11.608 28.9231 12.056 28.4591 12.568C28.0111 13.08 27.6191 13.568 27.2831 14.032C26.9311 14.512 26.6671 14.848 26.4911 15.04C26.3311 15.232 26.1951 15.328 26.0831 15.328C26.0031 15.328 25.8991 15.256 25.7711 15.112ZM47.2344 15.712C46.7384 15.536 46.3384 15.192 46.0344 14.68C45.7304 14.168 45.5384 13.624 45.4584 13.048C45.4264 13.032 45.2424 13.2 44.9064 13.552C44.3624 14.112 43.8664 14.576 43.4184 14.944C42.9704 15.296 42.5544 15.448 42.1704 15.4C41.8824 15.224 41.6184 15.024 41.3784 14.8C41.2344 14.656 41.1464 14.52 41.1144 14.392C40.9224 13.832 40.8264 13.352 40.8264 12.952C40.8264 12.632 40.8584 12.328 40.9224 12.04C41.0024 11.736 41.1384 11.296 41.3304 10.72C41.3624 10.624 41.5384 10.032 41.8584 8.944C42.1944 7.84 42.4424 7.224 42.6024 7.096L42.9144 7.072C43.0744 7.072 43.1944 7.128 43.2744 7.24C43.3064 7.304 43.3944 7.384 43.5384 7.48C43.6984 7.576 43.7784 7.688 43.7784 7.816C43.7784 8.056 43.6024 8.664 43.2504 9.64C42.9624 10.456 42.7384 11.136 42.5784 11.68C42.4184 12.208 42.3384 12.688 42.3384 13.12C42.3384 13.344 42.3624 13.544 42.4104 13.72C42.5064 13.72 42.6584 13.624 42.8664 13.432C43.0904 13.224 43.2504 13.08 43.3464 13C43.5544 12.872 43.8824 12.56 44.3304 12.064C44.7944 11.552 45.1144 11.16 45.2904 10.888C45.4504 10.632 45.6744 10.16 45.9624 9.472C46.2664 8.784 46.4184 8.32 46.4184 8.08C46.4184 7.904 46.4424 7.768 46.4904 7.672C46.5384 7.576 46.6264 7.488 46.7544 7.408C46.9944 7.408 47.1704 7.416 47.2824 7.432C47.3944 7.56 47.5064 7.68 47.6184 7.792C47.7464 7.888 47.8504 7.976 47.9304 8.056C47.9624 8.184 47.9784 8.28 47.9784 8.344C47.9784 8.664 47.8264 9.264 47.5224 10.144C47.3144 10.736 47.1544 11.232 47.0424 11.632C46.9464 12.032 46.8984 12.424 46.8984 12.808C46.8984 13.4 47.0664 13.896 47.4024 14.296C47.6584 14.184 47.8824 14.064 48.0744 13.936C48.2664 13.808 48.4424 13.68 48.6024 13.552C48.7784 13.392 49.0424 13.2 49.3944 12.976C49.5384 13.056 49.6504 13.24 49.7304 13.528C49.8264 13.8 49.8744 14.04 49.8744 14.248C49.6984 14.392 49.5944 14.488 49.5624 14.536C49.4344 14.824 49.1464 15.104 48.6984 15.376C48.2664 15.632 47.8744 15.76 47.5224 15.76C47.4584 15.76 47.3624 15.744 47.2344 15.712ZM53.1464 15.448C53.0984 15.432 52.9624 15.408 52.7384 15.376C52.5144 15.328 52.3224 15.264 52.1624 15.184C52.0184 15.088 51.9464 14.968 51.9464 14.824C51.9464 14.536 52.0184 14.328 52.1624 14.2L52.2104 14.08C52.2104 14.016 52.1944 13.944 52.1624 13.864C52.1304 13.784 52.1304 13.704 52.1624 13.624C52.1784 13.576 52.2184 13.472 52.2824 13.312C52.3464 13.136 52.3784 12.936 52.3784 12.712C52.3784 12.616 52.3864 12.544 52.4024 12.496C52.4664 12.32 52.5464 12.04 52.6424 11.656C52.8184 11.048 52.9624 10.616 53.0744 10.36C53.6984 9.048 54.2024 7.872 54.5864 6.832C54.6984 6.56 54.8504 6.424 55.0424 6.424C55.2184 6.424 55.4104 6.52 55.6184 6.712C55.8424 6.888 56.0104 7.072 56.1224 7.264C55.2104 8.944 54.6904 10 54.5624 10.432C54.7704 10.448 55.0184 10.448 55.3064 10.432C55.4184 10.416 55.5944 10.408 55.8344 10.408C56.0424 10.408 56.1944 10.416 56.2904 10.432C56.4024 10.448 56.5624 10.456 56.7704 10.456C57.0104 10.456 57.4664 10.408 58.1384 10.312L58.3784 9.568C58.5704 8.912 58.7544 8.384 58.9304 7.984C59.1064 7.568 59.3544 7.256 59.6744 7.048C59.7224 7.032 59.7864 7.024 59.8664 7.024C59.9784 7.024 60.0984 7.08 60.2264 7.192C60.2904 7.24 60.3784 7.312 60.4904 7.408C60.6024 7.488 60.6824 7.56 60.7304 7.624C60.7784 7.672 60.8024 7.728 60.8024 7.792C60.8024 7.904 60.6984 8.112 60.4904 8.416C60.3944 8.56 60.3144 8.76 60.2504 9.016C60.1544 9.304 60.0664 9.504 59.9864 9.616C59.9224 9.696 59.6824 10.336 59.2664 11.536C58.8504 12.736 58.6344 13.4 58.6184 13.528L58.5464 14.008C58.4824 14.36 58.4504 14.632 58.4504 14.824C58.4504 15.064 58.3224 15.184 58.0664 15.184C57.7784 15.184 57.4584 15.072 57.1064 14.848C56.9784 14.768 56.8984 14.592 56.8664 14.32C56.9624 13.936 57.1144 13.456 57.3224 12.88L57.5864 12.064C57.6504 11.904 57.6504 11.776 57.5864 11.68C57.2504 11.632 56.9224 11.608 56.6024 11.608C56.2504 11.608 55.7384 11.64 55.0664 11.704L54.3704 11.752C54.2424 11.88 54.0424 12.448 53.7704 13.456C53.7064 13.632 53.6584 13.792 53.6264 13.936C53.6424 14.112 53.5944 14.384 53.4824 14.752C53.3704 15.104 53.2584 15.336 53.1464 15.448ZM69.7079 7.48C69.8839 7.384 70.0599 7.336 70.2359 7.336C70.4599 7.336 70.6519 7.408 70.8119 7.552C70.9879 7.68 71.0759 7.848 71.0759 8.056C71.0759 8.088 71.0599 8.168 71.0279 8.296C71.0759 8.088 70.9079 8.432 70.5239 9.328C70.1399 10.224 69.9319 10.704 69.8999 10.768V10.84C70.1239 10.84 70.2679 10.912 70.3319 11.056C70.4119 11.184 70.4439 11.36 70.4279 11.584C70.2839 11.616 70.1479 11.672 70.0199 11.752C69.8919 11.832 69.7879 11.872 69.7079 11.872C69.6599 11.872 69.6039 11.896 69.5399 11.944C69.4759 11.992 69.4359 12.048 69.4199 12.112C69.3879 12.176 69.3319 12.424 69.2519 12.856L68.8199 14.584C68.7879 14.696 68.7319 14.792 68.6519 14.872C68.5719 14.952 68.4999 15 68.4359 15.016C68.3719 15 68.2439 14.96 68.0519 14.896C67.8759 14.816 67.7559 14.76 67.6919 14.728C67.6279 14.68 67.5639 14.632 67.4999 14.584V14.44C67.4999 14.216 67.5399 13.984 67.6199 13.744C67.7479 13.36 67.8759 12.824 68.0039 12.136C67.8759 12.088 67.5559 12.112 67.0439 12.208C66.5319 12.288 66.2519 12.328 66.2039 12.328C66.1079 12.376 65.9159 12.4 65.6279 12.4C65.1639 12.4 64.8359 12.36 64.6439 12.28L64.4999 12.352C64.4679 12.496 64.4199 12.656 64.3559 12.832C64.1799 13.328 64.0919 13.696 64.0919 13.936C64.0599 14.16 64.0279 14.344 63.9959 14.488C63.9639 14.648 63.9319 14.888 63.8999 15.208C63.8839 15.656 63.7319 15.88 63.4439 15.88C63.2679 15.88 63.0759 15.816 62.8679 15.688C62.7559 15.624 62.6039 15.496 62.4119 15.304L62.7959 13.456C62.8439 13.312 62.8919 13.112 62.9399 12.856C63.0039 12.6 63.0679 12.392 63.1319 12.232L63.3959 11.488C63.5879 10.928 63.7639 10.472 63.9239 10.12C63.9239 10.12 64.0919 9.648 64.4279 8.704C64.4759 8.592 64.5799 8.288 64.7399 7.792C64.9159 7.28 65.0199 6.984 65.0519 6.904C65.1159 6.728 65.2439 6.64 65.4359 6.64C65.6919 6.624 65.9079 6.688 66.0839 6.832C66.2759 6.96 66.3799 7.12 66.3959 7.312C66.3959 7.36 66.3879 7.44 66.3719 7.552C66.3559 7.648 66.3399 7.72 66.3239 7.768L65.0759 10.816V11.008C65.1399 11.056 65.2519 11.08 65.4119 11.08C65.5399 11.08 65.7319 11.056 65.9879 11.008C66.2599 10.96 66.4279 10.936 66.4919 10.936C66.6359 10.92 66.8519 10.904 67.1399 10.888C67.4279 10.872 67.7159 10.864 68.0039 10.864C68.2279 10.864 68.3479 10.872 68.3639 10.888L68.6279 10.12C68.8839 9.336 69.1559 8.704 69.4439 8.224C69.4599 8.176 69.4919 8.088 69.5399 7.96C69.5879 7.816 69.6439 7.656 69.7079 7.48ZM79.2626 16.024C79.1186 16.104 78.9506 16.072 78.7586 15.928C78.5826 15.784 78.4226 15.624 78.2786 15.448C78.1506 15.272 78.0466 15.024 77.9666 14.704C77.9026 14.384 77.8706 14.088 77.8706 13.816C77.8706 13.544 77.8626 13.352 77.8466 13.24C77.8306 13.128 77.7906 13.072 77.7266 13.072C77.6466 13.072 77.4786 13.216 77.2226 13.504L76.8146 13.936C76.5746 14.176 76.2066 14.448 75.7106 14.752C75.2306 15.04 74.8466 15.184 74.5586 15.184C74.3506 15.184 74.1426 15.048 73.9346 14.776C73.7266 14.488 73.5826 14.224 73.5026 13.984C73.4706 13.904 73.4546 13.744 73.4546 13.504C73.4546 12.88 73.5986 12.024 73.8866 10.936C74.1746 9.848 74.5186 8.888 74.9186 8.056C75.3346 7.224 75.7186 6.808 76.0706 6.808C76.2146 6.808 76.3346 6.88 76.4306 7.024C76.5266 7.168 76.6306 7.36 76.7426 7.6C76.7906 7.712 76.8146 7.8 76.8146 7.864C76.8146 7.912 76.7986 7.96 76.7666 8.008C76.7346 8.056 76.6866 8.112 76.6226 8.176C76.3826 8.464 76.0706 9.088 75.6866 10.048C75.3026 11.008 75.0146 11.784 74.8226 12.376C74.6786 12.904 74.6146 13.256 74.6306 13.432V13.456C74.6306 13.568 74.7026 13.624 74.8466 13.624C75.4386 13.624 76.0386 13.232 76.6466 12.448C77.2706 11.648 77.9746 10.584 78.7586 9.256C79.1586 8.568 79.4626 8.08 79.6706 7.792C79.8786 7.488 80.0386 7.328 80.1506 7.312C80.3426 7.28 80.5506 7.32 80.7746 7.432C80.9986 7.528 81.1026 7.672 81.0866 7.864C80.9426 8.296 80.6786 8.944 80.2946 9.808C79.9906 10.528 79.7426 11.144 79.5506 11.656C79.3586 12.168 79.2226 12.688 79.1426 13.216C79.1266 13.296 79.1186 13.424 79.1186 13.6C79.1186 14.256 79.3506 14.832 79.8146 15.328C79.8786 15.392 79.9106 15.456 79.9106 15.52C79.9106 15.648 79.8386 15.76 79.6946 15.856C79.5506 15.952 79.4066 16.008 79.2626 16.024ZM88.1538 15.952C88.0418 16.016 87.8898 15.992 87.6978 15.88C87.5218 15.768 87.3458 15.6 87.1698 15.376C87.0418 15.168 86.9618 14.952 86.9298 14.728C86.9138 14.504 86.9058 14.04 86.9058 13.336C86.9058 13.176 86.8738 13.096 86.8098 13.096C86.7618 13.096 86.6498 13.176 86.4738 13.336C86.2978 13.48 86.0818 13.68 85.8258 13.936C85.4098 14.336 85.0258 14.648 84.6738 14.872C84.3218 15.096 84.0338 15.2 83.8098 15.184C83.6338 15.184 83.4418 15.064 83.2338 14.824C83.0418 14.584 82.8898 14.304 82.7778 13.984C82.7298 13.792 82.7058 13.568 82.7058 13.312C82.7058 12.64 82.8418 11.824 83.1138 10.864C83.4018 9.904 83.7298 9.08 84.0978 8.392C84.4818 7.688 84.8178 7.336 85.1058 7.336C85.3458 7.336 85.5698 7.6 85.7778 8.128C85.8258 8.224 85.8498 8.304 85.8498 8.368C85.8498 8.48 85.7858 8.592 85.6578 8.704C85.4178 9.008 85.1378 9.552 84.8178 10.336C84.4978 11.12 84.2418 11.848 84.0498 12.52C83.8738 13.192 83.8418 13.528 83.9538 13.528C84.1778 13.528 84.4418 13.44 84.7458 13.264C85.0498 13.088 85.3538 12.856 85.6578 12.568C85.9618 12.264 86.2338 11.944 86.4738 11.608C86.7138 11.256 87.0098 10.784 87.3618 10.192C88.0338 9.12 88.4018 8.496 88.4658 8.32C88.7058 7.872 88.8738 7.584 88.9698 7.456C89.0818 7.312 89.2178 7.216 89.3778 7.168H89.7138C89.8098 7.184 89.9218 7.256 90.0498 7.384C90.1618 7.432 90.2258 7.488 90.2418 7.552C90.2738 7.6 90.2898 7.672 90.2898 7.768L89.9058 8.656L89.6898 9.16C89.6738 9.224 89.5858 9.408 89.4258 9.712C89.0578 10.528 88.7778 11.184 88.5858 11.68C88.3938 12.176 88.2498 12.688 88.1538 13.216C88.1378 13.296 88.1298 13.432 88.1298 13.624C88.1298 14.104 88.1778 14.44 88.2738 14.632C88.4178 14.92 88.5618 15.128 88.7058 15.256C88.7858 15.32 88.8258 15.384 88.8258 15.448C88.8258 15.56 88.7298 15.672 88.5378 15.784C88.3618 15.896 88.2338 15.952 88.1538 15.952ZM87.8418 5.992C86.8658 6.104 86.1938 5.44 85.8258 4C85.7938 3.872 85.7778 3.784 85.7778 3.736C85.7778 3.624 85.8098 3.504 85.8738 3.376C85.9058 3.312 85.9698 3.264 86.0658 3.232C86.1618 3.2 86.2418 3.192 86.3058 3.208C86.5138 3.288 86.6738 3.392 86.7858 3.52C86.8978 3.632 86.9698 3.776 87.0018 3.952C87.0498 4.064 87.0738 4.176 87.0738 4.288C87.2018 4.688 87.3778 4.888 87.6018 4.888C87.6498 4.888 87.7698 4.856 87.9618 4.792C88.6338 4.52 89.1378 4.216 89.4738 3.88C89.4738 3.88 89.8098 3.568 90.4818 2.944L90.5058 2.92C90.5698 2.888 90.6258 2.872 90.6738 2.872C90.7858 2.872 90.8658 2.896 90.9138 2.944C90.9938 3.04 91.0418 3.128 91.0578 3.208C91.0738 3.288 91.0818 3.368 91.0818 3.448C91.0818 3.528 91.0818 3.592 91.0818 3.64L91.0578 3.688C91.0898 3.784 91.0098 3.976 90.8178 4.264C90.6258 4.536 90.4098 4.76 90.1698 4.936C89.8658 5.176 89.3618 5.472 88.6578 5.824C88.5458 5.888 88.4018 5.928 88.2258 5.944C88.0498 5.96 87.9218 5.976 87.8418 5.992ZM108.539 15.856C108.459 15.888 108.251 15.824 107.915 15.664C107.579 15.488 107.331 15.312 107.171 15.136C107.011 14.944 106.883 14.768 106.787 14.608C106.707 14.448 106.667 14.264 106.667 14.056C106.571 13.832 106.507 13.608 106.475 13.384C106.459 13.144 106.451 12.84 106.451 12.472C106.451 12.136 106.515 11.808 106.643 11.488C106.771 11.168 106.947 10.784 107.171 10.336C107.315 9.936 107.635 9.448 108.131 8.872C108.643 8.28 109.179 7.848 109.739 7.576C110.187 7.336 110.571 7.216 110.891 7.216C111.083 7.216 111.267 7.248 111.443 7.312C111.635 7.36 111.779 7.44 111.875 7.552C111.971 7.648 112.043 7.712 112.091 7.744C112.219 7.616 112.331 7.328 112.427 6.88C112.539 6.416 112.595 5.92 112.595 5.392C112.595 4.4 112.427 3.68 112.091 3.232C111.563 2.48 110.947 2.104 110.243 2.104C109.971 2.104 109.635 2.184 109.235 2.344C109.027 2.248 108.851 2.088 108.707 1.864C108.563 1.64 108.523 1.424 108.587 1.216C108.955 0.911999 109.307 0.727999 109.643 0.663999C109.963 0.599999 110.195 0.568 110.339 0.568C110.611 0.568 110.851 0.631999 111.059 0.759999C111.859 1.016 112.475 1.384 112.907 1.864C113.339 2.344 113.635 2.912 113.795 3.568C113.971 4.224 114.075 5.048 114.107 6.04C114.123 6.184 114.131 6.376 114.131 6.616C114.131 6.824 114.107 7.192 114.059 7.72C113.963 7.848 113.907 8.008 113.891 8.2C113.875 8.392 113.867 8.504 113.867 8.536C113.867 8.856 113.835 9.088 113.771 9.232C113.755 9.44 113.691 9.664 113.579 9.904C113.467 10.144 113.411 10.312 113.411 10.408C112.947 11.72 112.275 12.896 111.395 13.936C110.515 14.976 109.563 15.616 108.539 15.856ZM108.395 14.296C108.619 14.392 109.003 14.216 109.547 13.768C110.107 13.304 110.571 12.808 110.939 12.28C111.035 12.136 111.187 11.864 111.395 11.464C111.603 11.048 111.755 10.736 111.851 10.528C112.027 10.048 112.115 9.616 112.115 9.232C112.115 8.96 112.067 8.776 111.971 8.68C111.843 8.552 111.675 8.488 111.467 8.488C111.067 8.488 110.579 8.688 110.003 9.088C109.811 9.232 109.619 9.432 109.427 9.688C109.251 9.928 109.139 10.08 109.091 10.144C108.931 10.4 108.803 10.584 108.707 10.696V10.744C108.707 10.856 108.659 10.952 108.563 11.032C108.483 11.112 108.427 11.176 108.395 11.224C108.219 11.56 108.091 11.904 108.011 12.256C107.931 12.592 107.891 12.832 107.891 12.976C107.891 13.264 107.931 13.536 108.011 13.792C108.107 14.048 108.235 14.216 108.395 14.296ZM117.48 15.784C117.336 15.656 117.24 15.576 117.192 15.544C117.144 15.512 117 15.464 116.76 15.4C116.728 15.288 116.632 15.08 116.472 14.776C116.264 14.488 116.152 14.24 116.136 14.032V13.912V13.792C116.136 13.616 116.096 13.488 116.016 13.408C116.096 13.344 116.112 13.248 116.064 13.12C116.016 12.976 116.024 12.872 116.088 12.808L116.112 12.64C116.064 12.56 116.04 12.448 116.04 12.304C116.04 12.048 116.12 11.536 116.28 10.768C116.44 10.032 116.504 9.592 116.472 9.448L116.016 9.04C116.048 8.8 116.088 8.624 116.136 8.512C116.184 8.384 116.296 8.28 116.472 8.2L116.64 8.272C116.704 8.256 116.752 8.24 116.784 8.224C116.832 8.192 116.872 8.168 116.904 8.152C117.176 7.64 117.432 7 117.672 6.232C117.768 5.928 117.888 5.608 118.032 5.272C118.192 4.92 118.352 4.64 118.512 4.432C118.608 4.32 118.696 4.184 118.776 4.024C118.856 3.864 118.912 3.752 118.944 3.688C119.152 3.256 119.488 2.768 119.952 2.224C120.432 1.68 120.872 1.288 121.272 1.048C121.512 0.888 121.72 0.791999 121.896 0.759999C122.072 0.727999 122.344 0.704 122.712 0.688C122.92 0.815999 123.128 0.991999 123.336 1.216C123.544 1.424 123.648 1.616 123.648 1.792V2.152C123.648 2.424 123.608 2.64 123.528 2.8C123.544 2.944 123.504 3.176 123.408 3.496C123.344 3.64 123.296 3.8 123.264 3.976C122.864 4.808 122.504 5.464 122.184 5.944C121.864 6.408 121.512 6.824 121.128 7.192C120.76 7.544 120.152 8.064 119.304 8.752C119.992 8.96 120.344 9.344 120.36 9.904C120.36 9.952 120.352 10.04 120.336 10.168C120.336 10.28 120.344 10.376 120.36 10.456L120.408 11.032C120.408 11.16 120.424 11.352 120.456 11.608C120.504 11.96 120.472 12.424 120.36 13C120.344 13.048 120.32 13.088 120.288 13.12C120.272 13.152 120.264 13.192 120.264 13.24C120.264 13.416 120.232 13.576 120.168 13.72C120.12 13.848 120.048 13.992 119.952 14.152C119.872 14.296 119.8 14.432 119.736 14.56C119.704 14.624 119.64 14.696 119.544 14.776C119.448 14.84 119.376 14.904 119.328 14.968C119.136 15.192 118.944 15.344 118.752 15.424C118.56 15.504 118.312 15.576 118.008 15.64C117.784 15.672 117.624 15.704 117.528 15.736L117.48 15.784ZM118.872 7.36L120.072 6.376C120.136 6.344 120.296 6.152 120.552 5.8C120.808 5.448 120.96 5.224 121.008 5.128C121.184 4.984 121.376 4.68 121.584 4.216C121.792 3.736 121.96 3.248 122.088 2.752C122.216 2.24 122.264 1.864 122.232 1.624L122.064 1.696C121.824 2 121.48 2.408 121.032 2.92C120.504 3.512 120.024 4.184 119.592 4.936C119.176 5.688 118.848 6.448 118.608 7.216L118.872 7.36ZM118.056 14.272C118.456 13.872 118.72 13.456 118.848 13.024C118.976 12.576 119.04 12.032 119.04 11.392V10.552C119.04 10.504 119.024 10.432 118.992 10.336C118.976 10.24 118.984 10.16 119.016 10.096C118.984 10 118.92 9.824 118.824 9.568C118.744 9.312 118.624 9.104 118.464 8.944C118.336 9.008 118.232 9.08 118.152 9.16C118.072 9.24 117.968 9.376 117.84 9.568C117.744 9.76 117.648 10.168 117.552 10.792C117.472 11.4 117.432 11.992 117.432 12.568C117.432 13.448 117.536 14.016 117.744 14.272H118.056ZM125.618 5.488C125.506 5.376 125.41 5.184 125.33 4.912C125.25 4.64 125.25 4.504 125.33 4.504C125.458 4.488 125.602 4.352 125.762 4.096C125.938 3.824 126.018 3.6 126.002 3.424C126.002 3.36 126.026 3.304 126.074 3.256C126.122 3.192 126.178 3.152 126.242 3.136C126.37 3.056 126.482 3.016 126.578 3.016C126.85 3.016 127.098 3.208 127.322 3.592C127.418 3.8 127.466 3.984 127.466 4.144C127.466 4.288 127.426 4.44 127.346 4.6C127.266 4.744 127.122 4.936 126.914 5.176C126.642 5.544 126.386 5.728 126.146 5.728C125.986 5.728 125.81 5.648 125.618 5.488ZM123.29 15.232C123.066 15.008 122.954 14.688 122.954 14.272C122.954 14.048 122.994 13.856 123.074 13.696C123.074 13.616 123.09 13.52 123.122 13.408C123.154 13.296 123.17 13.224 123.17 13.192C123.154 13.096 123.218 12.832 123.362 12.4C123.65 11.76 124.034 10.632 124.514 9.016C124.514 8.936 124.546 8.872 124.61 8.824C124.674 8.76 124.77 8.72 124.898 8.704C125.026 8.672 125.114 8.656 125.162 8.656C125.258 8.656 125.338 8.696 125.402 8.776C125.482 8.84 125.586 8.968 125.714 9.16C125.81 9.256 125.858 9.4 125.858 9.592C125.858 9.896 125.754 10.264 125.546 10.696C125.338 11.16 125.202 11.56 125.138 11.896C124.946 12.328 124.794 12.728 124.682 13.096C124.65 13.192 124.602 13.384 124.538 13.672C124.474 13.96 124.386 14.192 124.274 14.368C124.178 14.816 124.09 15.128 124.01 15.304C123.93 15.48 123.842 15.568 123.746 15.568C123.634 15.568 123.482 15.456 123.29 15.232ZM127.094 21.4C126.966 21.4 126.862 21.328 126.782 21.184C126.702 21.072 126.662 20.936 126.662 20.776C126.662 20.664 126.702 20.392 126.782 19.96C126.958 19.288 127.046 18.824 127.046 18.568C127.046 18.488 127.062 18.368 127.094 18.208C127.126 18.064 127.15 17.928 127.166 17.8C127.23 17.688 127.286 17.512 127.334 17.272C127.398 17.048 127.43 16.848 127.43 16.672C127.43 16.592 127.454 16.496 127.502 16.384C127.566 16.288 127.638 16.208 127.718 16.144C127.718 16.048 127.742 15.904 127.79 15.712C127.838 15.504 127.87 15.36 127.886 15.28C127.966 14.848 128.278 13.824 128.822 12.208C129.366 10.592 129.83 9.288 130.214 8.296C130.39 7.896 130.518 7.528 130.598 7.192C130.678 6.856 130.718 6.592 130.718 6.4C130.718 6.336 130.734 6.28 130.766 6.232C130.814 6.168 130.886 6.088 130.982 5.992C131.094 5.88 131.198 5.824 131.294 5.824C131.374 5.824 131.462 5.856 131.558 5.92C131.654 5.984 131.75 6.056 131.846 6.136C131.942 6.28 132.014 6.416 132.062 6.544C132.126 6.672 132.158 6.808 132.158 6.952C132.158 7 132.142 7.152 132.11 7.408C132.11 7.744 132.038 8.024 131.894 8.248C131.75 8.456 131.694 8.552 131.726 8.536C132.446 8.2 133.086 8.032 133.646 8.032C134.318 8.032 134.838 8.248 135.206 8.68C135.59 9.112 135.782 9.672 135.782 10.36C135.782 10.648 135.694 11 135.518 11.416C135.358 11.816 135.198 12.088 135.038 12.232C134.942 12.232 134.814 12.4 134.654 12.736C134.446 12.992 134.102 13.264 133.622 13.552C133.142 13.824 132.806 13.928 132.614 13.864C132.598 13.864 132.574 13.872 132.542 13.888C132.51 13.904 132.494 13.944 132.494 14.008C132.494 14.072 132.222 14.192 131.678 14.368C131.134 14.544 130.686 14.632 130.334 14.632C130.142 14.632 129.998 14.624 129.902 14.608C129.806 14.576 129.71 14.52 129.614 14.44C129.502 14.552 129.446 14.656 129.446 14.752C129.446 14.928 129.366 15.248 129.206 15.712C129.046 16.176 128.918 16.408 128.822 16.408C128.806 16.424 128.782 16.456 128.75 16.504C128.734 16.552 128.758 16.608 128.822 16.672C128.822 16.72 128.814 16.832 128.798 17.008C128.782 17.184 128.742 17.32 128.678 17.416C128.678 17.56 128.654 17.752 128.606 17.992C128.558 18.248 128.502 18.44 128.438 18.568C128.438 18.76 128.406 18.944 128.342 19.12C128.294 19.312 128.238 19.408 128.174 19.408C128.078 19.44 128.03 19.672 128.03 20.104C128.014 20.504 127.934 20.816 127.79 21.04C127.646 21.264 127.478 21.376 127.286 21.376L127.094 21.4ZM130.19 13.36C130.43 13.36 130.91 13.24 131.63 13C132.366 12.744 132.878 12.496 133.166 12.256C133.502 11.968 133.774 11.664 133.982 11.344C134.19 11.008 134.294 10.672 134.294 10.336C134.294 10.08 134.222 9.848 134.078 9.64C133.966 9.464 133.774 9.376 133.502 9.376C133.182 9.376 132.798 9.488 132.35 9.712C131.918 9.936 131.518 10.232 131.15 10.6C130.862 10.888 130.606 11.304 130.382 11.848C130.158 12.376 130.046 12.792 130.046 13.096C130.046 13.272 130.094 13.36 130.19 13.36Z" fill="white"/>
</svg>
